# xmcd
#
# Track frame offsets:
#  150
#  14393
#  25849
#  38865
#  52099
#  67004
#  82516
#  90341
#  104823
#  117176
#  131306
#  149142
#  165818
#
# Disc length: 2380 seconds
#
# Revision: 0
# Processed by: cddbd v1.5.1PL2 Copyright (c) Steve Scherf et al.
# Submitted via: Collectorz.com_Music_Collector 6.11
#
DISCID=a4094a0d
DTITLE=Joel Paterson and His Blues Roundup - Go Lightnin'
DYEAR=1900
DGENRE=Swing
TTITLE0=Now Boogie
TTITLE1=Keep Your Arms Around Me
TTITLE2=Guitar Highway
TTITLE3=Go Linghtnin'
TTITLE4=Heart In Sorrow
TTITLE5=Mid-Fi Blues
TTITLE6=Good As Gone Rag
TTITLE7=Honey Blues
TTITLE8=That Wouldn't Satisfy
TTITLE9=Western Avenue
TTITLE10=One Pocket Blues
TTITLE11=Salty Dog Blues
TTITLE12=Hate That Train For Leaving
EXTD=
EXTT0=
EXTT1=
EXTT2=
EXTT3=
EXTT4=
EXTT5=
EXTT6=
EXTT7=
EXTT8=
EXTT9=
EXTT10=
EXTT11=
EXTT12=
PLAYORDER=
